<?xml version="1.0" encoding="UTF-8"?>
<svg id="_Слой_1" data-name="Слой_1" xmlns="http://www.w3.org/2000/svg" version="1.1" viewBox="0 0 96 96">
  <!-- Generator: Adobe Illustrator 30.1.0, SVG Export Plug-In . SVG Version: 2.1.1 Build 136)  -->
  <defs>
    <style>
      .st0 {
        fill: #fff;
      }
    </style>
  </defs>
  <path class="st0" d="M95.53,42.97c-5.21-8.19-7.39-8.83-8.33-8.89-.47-.03-1.11.25-1.77.9-.66.65-1.39,1.38-1.98,1.34-1.07-.08-3.01-3.6-5.27-6.12-1.19-1.32-2.42-2.18-3.34-2.11-2.67.2-4.87,3.87-7.68,3.92-2.8.04-5.65-2.66-6.73-4.14-1.08-1.49-3.3-3.89-5.02-5.78-1.71-1.89-2.36-3.85-3.69-5.32-1.34-1.47-5.79-2.72-7.68-3.63-1.89-.91-4.9-4.32-6.7-5.59-1.8-1.27-2.67-1.65-3.76-.51-1.09,1.13-1.47,1.91-3.36,1.07-1.89-.85-1.98-1.82-2.65-1.74-.67.07-1.74,1.28-2.49,3.64-.76,2.36-2.54,4.23-3.32,4.16-.78-.07-1.27.18-2.11,1-.66.65-2.53,2.2-3.54,3.72-.28-.23-1.06-.81-1.91-.87-1.05-.08-3.04.26-4.09,1.37-1.05,1.11-1.58,2.26-2.24,3.1-.66.85-2.36,2.56-2.6,2.72-.24.16-1.21.69-1.88.96-.67.27-2.34,1.65-2.35,2.01-.01.37.79.42,1.21.36.42-.07.37-.59.77-.87.4-.28,2.41-1.19,2.79-1.28.38-.09.79.1,1.08.02.29-.08.73-.93.97-.78.23.16.77.63.99,1.32s.48.89.81.89,1.05.24,1.18,1.06c.13.81.82,1.65,1.24,1.95s.49,1.46.7,1.68c.21.22.86.07,1.27.02.2-.03.42-.03.6-.02-.02.13-.05.26-.1.41-.29.87-1.31,2.31-1.31,2.31,0,0-4.27-1.22-5.9.16-.7.59-2.2,1.88-3.61,3.52-1.85,2.17-3.58,4.71-3.58,4.71,0,0,0,.03,0,.09-.1,1.54-1.28,22.13,5.23,33.61,1.99,3.51,5.11,8.02,9.34,12.34,6.47-6.62,18.75-16.02,39.93-22.09,16.14-4.62,30.23-6.33,40.81-6.82.86-6.9.54-13.23.07-17.77ZM27.39,23.27c-1.75-2-1.62-6.44-1.62-6.44,0,0,.78,2.35,2.55,3.15,1.77.8,4.51,3.2,4.51,3.2,0,0,2.14-5.07,2.87-6.54s1.2-.63,1.75.28c.55.92,1.52-.23,1.54-2.05.02-1.82-.93-4.29-1.3-4.34s-1.52.92-1.94,1.59-.58-.11-.31-1.42c.26-1.29.7-2.59,1.2-2.42s6.73,4.56,5.9,4.73-1.05.76-.71,2.76c.33,2,5.74,5.84,5.74,5.84,0,0-.47-.6-1.27-2.54,1.97,2.84,5.77,4.11,5.77,4.11,0,0-2-1.44-3-3.47-1-2.04.37-1.13,1.6.27,1.24,1.4,8.61,8.65,12.15,11.68,3.54,3.04,9.65,4.47,11.95,5.11s6.41,1.9,8.98,3.34c2.57,1.44,6.84,3.62,6.84,3.62,0,0-22.06-7.19-38.49-6.32-16.42.87-26.5,3.94-26.5,3.94,2.23-6.34,3.18-7.43,4.61-8.43,1.42-1,2.74-2.34,2.92-3.76.18-1.42-3.98-3.86-5.74-5.86ZM12.79,20.94c.09-.34.29-.23.69-.5.4-.27.7-.42.75-.93.04-.51-.2-.67.14-.71.34-.04.95-.02,1.01.33.04.21.12.47.24.62-.05.12-.09.23-.12.34-.41,1.51-.17,2.17-.4,3.25-.12.05-.24.08-.38.11-.75.11-1.26.06-1.35-.31-.09-.37-.68-1.86-.59-2.2ZM13.74,27.22c.04,1.18.33,1.2,0,1.91s-.02,1.91.42,2.09c.02,0,.04.02.06.03-.22.06-.56.09-.72-.17-.24-.4-1.28-2.29-1.51-3.27-.23-.98-1.45-2.43-1.59-2.8-.14-.38.02-1.21.36-1.51.33-.3.8-.72.89-.62.09.1,1.2,1.52,1.42,1.6.18.06,1.36-.19,1.78-.29-.55,1.48-1.16,1.87-1.12,3.02ZM18.54,79.75c-.82-1.11-1.23-1.67-2.05-2.78-1.1.81-1.65,1.22-2.72,2.07.85,1.09,1.28,1.63,2.13,2.72-.53.41-.79.62-1.31,1.04-1.63-2.02-3.26-4.05-4.88-6.07.56-.45.83-.67,1.4-1.11.72.92,1.07,1.37,1.79,2.29,1.09-.85,1.64-1.27,2.76-2.09-.69-.94-1.03-1.4-1.72-2.34.57-.42.86-.63,1.44-1.04,1.51,2.11,3.02,4.23,4.53,6.34-.54.39-.81.58-1.35.98ZM20.7,78.2c-1.49-2.13-2.98-4.25-4.47-6.38,1.7-1.19,3.42-2.34,5.17-3.44.29.46.43.69.72,1.15-1.24.79-2.47,1.6-3.7,2.42.37.55.56.82.93,1.37,1.1-.75,2.21-1.48,3.33-2.19.29.45.43.68.71,1.13-1.11.7-2.21,1.42-3.3,2.17.45.66.68.99,1.13,1.66,1.23-.83,2.47-1.63,3.72-2.43.31.49.46.73.76,1.22-1.69,1.08-3.36,2.18-5.01,3.32ZM26.25,74.54c-1.37-2.21-2.73-4.42-4.1-6.62.6-.37.9-.55,1.5-.91,1.34,2.23,2.67,4.45,4.01,6.68-.56.34-.84.51-1.4.85ZM33.75,70.28c-.24-.29-.36-.43-.6-.72-.08.48-.25.9-.49,1.24-.25.34-.59.63-1.04.87-.98.53-1.94.65-2.92.35-.98-.31-1.79-.98-2.42-2.04-.63-1.07-.83-2.11-.57-3.12.26-1.01.93-1.82,2.01-2.41.94-.51,1.82-.71,2.63-.61.81.1,1.45.5,1.94,1.17-.62.32-.93.48-1.55.8-.28-.31-.62-.48-1.01-.51-.39-.03-.82.08-1.28.33-.62.34-.99.82-1.1,1.43-.11.61.04,1.28.46,2.02.42.73.93,1.21,1.51,1.43.59.22,1.18.16,1.8-.18.46-.25.78-.59.95-1.02.17-.43.18-.9,0-1.4-.66.34-.98.52-1.63.87-.26-.47-.38-.7-.64-1.17,1.2-.65,1.81-.97,3.02-1.59.64,1.25,1.27,2.51,1.91,3.76-.39.2-.59.3-.98.5ZM39.99,67.26c-.56-1.26-.84-1.89-1.41-3.15-1.23.55-1.85.83-3.07,1.42.6,1.25.9,1.87,1.5,3.11-.59.29-.89.43-1.48.72-1.16-2.32-2.32-4.65-3.48-6.97.63-.31.95-.47,1.58-.77.5,1.05.75,1.57,1.26,2.62,1.23-.59,1.85-.88,3.1-1.44-.47-1.06-.71-1.59-1.18-2.65.64-.29.96-.43,1.61-.7,1.02,2.39,2.05,4.77,3.07,7.16-.6.26-.91.39-1.51.66ZM45.43,65c-.61.24-.91.36-1.52.6-.8-1.98-1.59-3.96-2.39-5.94-.92.37-1.38.56-2.3.95-.22-.51-.33-.77-.55-1.28,2.07-.88,4.16-1.71,6.28-2.48.19.52.29.78.48,1.31-.93.34-1.39.51-2.31.87.77,1.99,1.54,3.98,2.31,5.97ZM55.03,61.76c-.39-.56-.58-.83-.97-1.39-1.2.35-1.79.54-2.98.92,0,.68,0,1.01,0,1.69-.65.21-.98.32-1.63.55.06-2.77.16-5.54.32-8.31.77-.24,1.15-.36,1.92-.59,1.71,2.19,3.37,4.42,4.99,6.67-.66.18-.99.27-1.65.46ZM62.58,59.85c-.16-.34-.23-.51-.39-.86-.21.45-.47.8-.8,1.06-.33.26-.73.45-1.23.57-1.08.26-2.04.12-2.9-.44-.86-.55-1.47-1.42-1.79-2.6-.33-1.2-.25-2.25.26-3.16.51-.91,1.37-1.51,2.56-1.8,1.03-.25,1.94-.21,2.69.1.75.31,1.27.86,1.56,1.64-.68.14-1.02.22-1.71.37-.19-.37-.47-.63-.84-.76-.37-.13-.81-.14-1.32-.02-.68.16-1.16.53-1.43,1.09-.27.56-.29,1.25-.08,2.07.21.82.58,1.41,1.08,1.78.51.37,1.1.47,1.77.3.51-.12.9-.37,1.18-.74.28-.37.4-.82.37-1.35-.72.16-1.08.24-1.8.41-.12-.52-.18-.78-.31-1.3,1.33-.31,1.99-.46,3.33-.74.29,1.38.57,2.75.86,4.13-.43.09-.64.13-1.07.23ZM64.54,59.45c-.51-2.55-1.02-5.09-1.52-7.64,2.02-.39,4.04-.74,6.08-1.05.08.54.12.8.2,1.34-1.45.22-2.89.46-4.34.72.12.65.18.98.3,1.63,1.3-.24,2.6-.46,3.91-.66.08.53.12.79.2,1.32-1.29.19-2.58.41-3.87.65.15.79.22,1.18.36,1.97,1.45-.26,2.9-.5,4.35-.72.08.57.12.85.21,1.42-1.97.3-3.93.64-5.89,1.02ZM75.84,57.77c-1.26-1.68-2.57-3.33-3.91-4.95.22,1.77.45,3.54.67,5.31-.64.08-.96.12-1.6.21-.36-2.57-.73-5.14-1.09-7.71.72-.1,1.09-.15,1.81-.24,1.35,1.62,2.68,3.26,3.96,4.94-.17-1.78-.35-3.55-.52-5.33.69-.07,1.03-.1,1.72-.16.22,2.59.43,5.18.65,7.76-.68.06-1.01.09-1.69.15ZM84.41,56.68c-.63.54-1.45.82-2.48.87-1.18.05-2.12-.25-2.83-.92-.71-.67-1.12-1.65-1.22-2.94-.1-1.32.17-2.36.82-3.12.66-.75,1.67-1.17,3.01-1.23,1.09-.05,1.96.17,2.61.64.64.47,1,1.15,1.07,2.03-.68.01-1.02.02-1.7.04-.08-.44-.29-.77-.61-.99-.32-.22-.76-.32-1.3-.3-.77.03-1.33.29-1.7.77-.37.48-.52,1.15-.47,2.03.05.84.29,1.48.69,1.92.41.44.96.64,1.66.61.51-.02.91-.16,1.23-.42.31-.26.51-.62.6-1.09.66-.02.99-.03,1.65-.04-.05.89-.4,1.59-1.03,2.13ZM89.78,54.34c-.03,1.16-.04,1.74-.06,2.9-.66-.01-.99-.02-1.65-.02,0-1.16.01-1.74.02-2.9-1-1.64-2.02-3.26-3.08-4.87.86-.02,1.29-.02,2.16-.02.61,1.11,1.21,2.24,1.79,3.37.57-1.11,1.15-2.22,1.75-3.32.81.02,1.21.04,2.02.07-1,1.58-1.98,3.18-2.94,4.79ZM58.85,42.73c-19.29,1-36.34,9.15-43.48,13.95-6.91,4.65-11.19,9.01-11.19,9.01,0,0-.53-2.22-1-5.47s-.56-5.18-.56-5.18c0,0,9.34-7.13,25.4-12.04,19.49-5.94,42.37-5.19,65.49,2.07,0,0-15.36-3.34-34.65-2.34Z"/>
  <path class="st0" d="M51.1,59.91c.86-.27,1.29-.41,2.16-.67-.81-1.14-1.23-1.71-2.06-2.84-.05,1.4-.07,2.11-.1,3.51Z"/>
</svg>